# xmcd CD database file
#
# Track frame offsets:
#	150
#	22920
#	40872
#	57155
#	74961
#	99829
#	116946
#	134096
#	156217
#	172874
#	190905
#
# Disc length: 2733 seconds
#
# Revision: 0
# Processed by: cddbd v1.5.2PL0 Copyright (c) Steve Scherf et al.
# Submitted via: CDex 1.70beta2
#
DISCID=990aab0b
DTITLE=Louis Armstrong - Louis Armstrong - The Platinum Collection [CD2]
DYEAR=2006
DGENRE=Jazz
TTITLE0=Duke's place
TTITLE1=Just squeeze me (But don't tease me)
TTITLE2=I'm beninning to see the light
TTITLE3=Mood indigo
TTITLE4=I got it bad (And that ain't good)
TTITLE5=In a mellow tone
TTITLE6=Drop me off at Harlem
TTITLE7=Solitude
TTITLE8=Cotton tail
TTITLE9=Black and tan fantasy
TTITLE10=The beautiful american
EXTD=YEAR: 2006
EXTT0=
EXTT1=
EXTT2=
EXTT3=
EXTT4=
EXTT5=
EXTT6=
EXTT7=
EXTT8=
EXTT9=
EXTT10=
PLAYORDER=
